<?xml version="1.0" encoding="UTF-8" standalone="no"?>
<svg
   enable-background="new 0 0 515.91 728.5"
   height="512"
   id="Layer_1"
   version="1.1"
   viewBox="0 0 512.00003 512"
   width="512"
   xml:space="preserve"
   sodipodi:docname="gnome2.svg"
   inkscape:version="1.2.2 (b0a8486541, 2022-12-01)"
   xmlns:inkscape="http://www.inkscape.org/namespaces/inkscape"
   xmlns:sodipodi="http://sodipodi.sourceforge.net/DTD/sodipodi-0.dtd"
   xmlns="http://www.w3.org/2000/svg"
   xmlns:svg="http://www.w3.org/2000/svg"><sodipodi:namedview
     id="namedview76"
     pagecolor="#ffffff"
     bordercolor="#000000"
     borderopacity="0.25"
     inkscape:showpageshadow="2"
     inkscape:pageopacity="0.0"
     inkscape:pagecheckerboard="0"
     inkscape:deskcolor="#d1d1d1"
     showgrid="false"
     inkscape:zoom="2.0058594"
     inkscape:cx="196.42454"
     inkscape:cy="258.99124"
     inkscape:window-width="1811"
     inkscape:window-height="1236"
     inkscape:window-x="530"
     inkscape:window-y="99"
     inkscape:window-maximized="0"
     inkscape:current-layer="Layer_1" /><defs
     id="defs7" /><rect
     style="fill:#000000"
     id="rect300"
     width="512"
     height="512"
     x="0.093537003"
     y="-0.24144201" /><path
     d="M 512.00005,256 C 512.00005,397.38491 397.38494,512.00002 256,512.00002 114.61514,512.00002 2.571788e-5,397.38491 2.571788e-5,256 2.571788e-5,114.61509 114.61514,-1.6380724e-5 256,-1.6380724e-5 397.38494,-1.6380724e-5 512.00005,114.61509 512.00005,256 Z"
     id="path4946"
     style="fill:#ffffff;fill-opacity:1;fill-rule:nonzero;stroke:none;stroke-width:0.693727" /><path
     d="m 366.74994,94.438544 c -71.77139,0 -85.23478,102.225166 -44.85933,102.225166 40.36963,0 116.63342,-102.225166 44.85933,-102.225166 z"
     id="path3775"
     style="fill:#000000;fill-opacity:1;fill-rule:nonzero;stroke:none;stroke-width:1.00082" /><path
     d="m 247.57532,183.99628 c 21.4976,1.31308 45.08392,-82.03955 4.67935,-76.79723 -40.39005,5.24232 -26.18566,75.48515 -4.67935,76.79723 z"
     id="path3777"
     style="fill:#000000;fill-opacity:1;fill-rule:nonzero;stroke:none;stroke-width:1.00082" /><path
     d="m 149.05231,235.79092 c 15.28958,-6.73054 1.96922,-72.55974 -24.02979,-54.60696 -25.987295,17.95679 8.7402,61.3335 24.02979,54.60696 z"
     id="path3779"
     style="fill:#000000;fill-opacity:1;fill-rule:nonzero;stroke:none;stroke-width:1.00082" /><path
     d="m 192.13207,201.33455 c 18.20099,-3.71105 19.19871,-78.37052 -13.25911,-64.97749 -32.46373,13.39603 -4.92736,68.69355 13.25911,64.97749 z"
     id="path3781"
     style="fill:#000000;fill-opacity:1;fill-rule:nonzero;stroke:none;stroke-width:1.00082" /><path
     d="m 287.17472,368.41111 c 3.22946,24.66231 -18.09309,36.84233 -38.97508,20.94324 -66.47654,-50.61267 110.06632,-75.86145 98.42963,-145.00738 -9.65915,-57.39526 -185.76194,-39.72471 -205.81545,50.08123 -13.57417,60.74101 55.87501,145.01039 128.34077,145.01039 35.64935,0 76.7687,-32.1895 84.46154,-72.96808 5.87583,-31.0956 -69.13703,-18.63534 -66.44141,1.9406 z"
     id="path3783"
     style="fill:#000000;fill-opacity:1;fill-rule:nonzero;stroke:none;stroke-width:1.00082" /></svg>
